PathFileType	4	(X/Y/Z)	3_2_10_p0_0-329.trc
DataRate	CameraRate	NumFrames	NumMarkers	Units	OrigDataRate	OrigDataStartFrame	OrigNumFrames
59.0	59.0	6	27	m	59.0	82	330
Frame#	Time	RHip			RKnee			RAnkle			RBigToe			RSmallToe			RHeel			LHip			LKnee			LAnkle			LBigToe			LSmallToe			LHeel			Neck			Head			Nose			RShoulder			RElbow			RWrist			RThumb			RIndex			RPinky			LShoulder			LElbow			LWrist			LThumb			LIndex			LPinky			
		X1	Y1	Z1	X2	Y2	Z2	X3	Y3	Z3	X4	Y4	Z4	X5	Y5	Z5	X6	Y6	Z6	X7	Y7	Z7	X8	Y8	Z8	X9	Y9	Z9	X10	Y10	Z10	X11	Y11	Z11	X12	Y12	Z12	X13	Y13	Z13	X14	Y14	Z14	X15	Y15	Z15	X16	Y16	Z16	X17	Y17	Z17	X18	Y18	Z18	X19	Y19	Z19	X20	Y20	Z20	X21	Y21	Z21	X22	Y22	Z22	X23	Y23	Z23	X24	Y24	Z24	X25	Y25	Z25	X26	Y26	Z26	X27	Y27	Z27	
82	1.3898305084745763	0.2152439923582716	0.36883732330267377	0.931476033779866	0.20131732082491946	0.39286709183117335	1.3844330049498443	0.1527154361013211	0.48621552098860693	1.8312546390053073	0.1737038592917831	0.2653288476152965	1.8116854868377623	0.22030640175775537	0.3174570509649152	1.8221867245676384	0.1371178414674548	0.5316332683026104	1.885372440931777	-0.012519809336841768	0.3558805699687831	0.9263276533174898	-0.02230267876079628	0.37685796699616037	1.3819459544519215	-0.019646950126535292	0.42821414181185474	1.8013436621229977	0.016088332998159458	0.2630012825465839	1.8182588155969308	-0.044027255480926085	0.28152081843668225	1.800727472041456	-0.016833887691404384	0.5472073212340461	1.8895474104356247	0.08552571238596533	0.37778054967942887	0.40813876803780486	0.06533083226218382	0.2909879250319649	0.13925252645492736	0.0715027559992767	0.23084046931360871	0.2930934219981837	0.25618004468878675	0.34435841849531984	0.44365339071856685	0.3239419105473391	0.41064627291649103	0.7047039907062157	0.3071039830549008	0.23995737297106892	0.8748206825749331	0.21309550847917563	0.14651920476090363	0.8880837303071721	0.20179852303638063	0.13027151219920044	0.9484444658092972	0.22229277571273887	0.18053488515279195	0.9793879432429438	-0.07372066721799124	0.42033348796715486	0.4935738353880648	-0.13289023225407123	0.3852516380443696	0.7283109189778398	-0.11144244998985535	0.2834174282113263	0.8847423238496808	-0.04376948678639676	0.18232534103399603	0.9316763967751611	-0.05469902730835408	0.16354369622226014	0.9427043118399587	-0.06683340794494519	0.16559590310878802	0.9839237964491426
83	1.4067796610169492	0.21468644097551134	0.3687860740804501	0.9353392798897568	0.20431496552434453	0.40590858671331903	1.3898625549470407	0.15386519068644033	0.485907671209167	1.826463587560132	0.17384150768288908	0.26551925355122147	1.8117588860672764	0.21942677885038422	0.3178563515388468	1.8270038906013972	0.1392215177485786	0.5340183651395276	1.885742228899381	-0.012613044187389389	0.3558824589231199	0.9261288624478643	-0.02211381643566388	0.376572179039838	1.381464942450455	-0.025151588893732098	0.4429174481975541	1.8052855272186117	0.016094580402358463	0.26275541208142444	1.8181103949683564	-0.04403460424531441	0.2813152701555106	1.800580813625576	-0.016940134820581886	0.5476711387148145	1.8898144311282306	0.0855739933225078	0.3777361661287349	0.4081131938892231	0.06542913686300762	0.2918269360056726	0.14273091623529288	0.07155284636903114	0.23111954046627362	0.2933346528774985	0.2561928013166312	0.3443617946312362	0.4437349407582407	0.32392327205534843	0.41075995040495217	0.7048185747407228	0.3075086877989119	0.2400926795471311	0.8714759949000641	0.21333026550987091	0.14616796000161467	0.8881019256460327	0.20186820314834844	0.1302796491075636	0.948448262178538	0.22237800495195928	0.1805357287227209	0.9793766678724298	-0.07699979790392152	0.4184783890947725	0.48989932895499505	-0.12838885891719692	0.38655139123182786	0.7209813758190146	-0.11149825780926581	0.2834490132863271	0.8847199226811067	-0.05008212856699884	0.19436052403818724	0.9356275584093785	-0.062451657048797446	0.16301238897913634	0.9464502379585372	-0.07797299854902541	0.16160815872521503	0.9821530083274905
84	1.423728813559322	0.2098719262116261	0.38336629992990345	0.931747770750107	0.2012624462740918	0.3928732579391032	1.3843662783237791	0.15383762793727826	0.48551150635923074	1.8262410098484254	0.17501659260841718	0.26490856173887695	1.8076291411966747	0.21791498403081225	0.3057105539286879	1.8156524735567934	0.1389064477767287	0.5320275172099889	1.8852078217243429	-0.012223177004590958	0.35679471333100105	0.9186401329791088	-0.022150358585803658	0.3796832727379824	1.3832201422078862	-0.019601985276307368	0.4282087613648298	1.8012159084514408	0.009882101553553211	0.27712359226448924	1.827294663107559	-0.050735867230532326	0.29723880212933	1.8055073178646703	-0.017014996536793895	0.5488974373522333	1.8857875431770017	0.08956623339353115	0.37955000308765074	0.40482531342410405	0.06334394801126776	0.28019045832482836	0.14267363250128823	0.07653446591075336	0.2213917043982433	0.2926184373808454	0.25622270286744875	0.3444182910601593	0.44374267996939687	0.32394022887277135	0.41095541665943675	0.7049009835353187	0.30711641123752964	0.24024185223599867	0.8749282613284005	0.21444044493495287	0.1330125819286677	0.8839149142663147	0.20082665548954337	0.1364700278749389	0.9467982821083282	0.22231527998780862	0.18031604261591486	0.9793091892522763	-0.07329781748805132	0.4209351897378812	0.4863910009938595	-0.12894752733871911	0.38881112139307383	0.7245836321038914	-0.11149079542934145	0.2833888722299868	0.8848476112018081	-0.042823302567836806	0.1805178822457927	0.9317534021626295	-0.055420604531049154	0.15160675026389922	0.9505207232641386	-0.06632647350895232	0.16574811484107427	0.9884462688871791
85	1.4406779661016949	0.2096171240356693	0.38411331018357264	0.9279910378743323	0.2053091702548275	0.39450416855900927	1.3848826408770312	0.15390284887927172	0.4855648906296636	1.8261449464052852	0.1749085256700292	0.26500976688464417	1.8074868783050388	0.2202409569511066	0.31815912603336954	1.8226708323825072	0.1383624687611429	0.5304562785609973	1.8795998085010126	-0.012309773119182259	0.35695216090130544	0.9187349322336569	-0.021970853916024026	0.3796618095911812	1.3833129084363205	-0.019600228079127195	0.428156074921654	1.8011623682428097	0.009863052823096331	0.2769529790193344	1.827146130622414	-0.05075875031517538	0.2969866340981763	1.8050750285857804	-0.010173057076889333	0.5310702229137277	1.8750130809251757	0.0896685504891506	0.3794416936979336	0.40477940456298084	0.06913180503776183	0.29285364105970896	0.1460839721302287	0.0817046368971494	0.209873152976958	0.29175657328336124	0.2565391796905976	0.3438542721179909	0.4471416406423011	0.32418710149096597	0.4101062659780724	0.7085547347154658	0.3069992553851678	0.24010940419860888	0.8751368836070114	0.20780718490578703	0.12674807162805626	0.8852845944098133	0.19732139839483567	0.1245032252513813	0.9448073395246597	0.22227381830641654	0.1797172553123428	0.9793665523986085	-0.07318687039451532	0.4203925809946886	0.490044760948183	-0.12891269088903498	0.3888753733697588	0.7246259212302056	-0.11084693895491063	0.28352970614701195	0.8816715976727104	-0.049675173673834304	0.1935645526546641	0.9357114469282949	-0.06138036717305348	0.16323387355814623	0.9576626704176839	-0.06607599431807086	0.19065201919338007	0.9962180740946617
86	1.4576271186440677	0.21451697008501652	0.3706560454720306	0.92395351124644	0.20528268640879202	0.394534234909813	1.3847432230013481	0.15389926579075167	0.4857599896252949	1.826287205956692	0.17497431774726288	0.2649724144388366	1.8073140459839874	0.22040312289327516	0.31771680753404696	1.822356543189712	0.13926719598266346	0.5332040142282004	1.885536817236283	-0.012526383441414185	0.3570118944583543	0.9183096589416204	-0.022078430526816042	0.37979796084451295	1.3833396438008316	-0.024220410136006523	0.45724879501806404	1.8177717318751117	0.009796260235632155	0.27718119077447934	1.8273144347413082	-0.05084762427892369	0.29701908069214233	1.8051243951309142	-0.009600196172173829	0.5297235298157771	1.879091343587164	0.08975682847055683	0.37939815723402903	0.40488899504843007	0.06934473795347397	0.2931153528947758	0.1428185898656691	0.0819353224444429	0.20936869906759556	0.29552287496770524	0.26041890564987974	0.34583182974390886	0.4474328363417996	0.3197321250594001	0.4085614350461413	0.7121101629439648	0.30692093198517556	0.24050280294082224	0.8753303536633908	0.2111672672826167	0.128320302001884	0.8899747009557099	0.1980048222128725	0.12584502204871634	0.9478801804585042	0.22226239369135445	0.17969496210931005	0.97948236115755	-0.07326786239897635	0.4206475150700705	0.4862621085986638	-0.12897217976450012	0.3887964121442668	0.7245905925428396	-0.11054196075000083	0.28228355089877527	0.8854449866081746	-0.05449097861907002	0.2035487157689303	0.9428525052025329	-0.05742488599361977	0.1665409272320058	0.9662239246834002	-0.06928859148201011	0.19022993901569424	1.0006696168858673
87	1.4745762711864407	0.20894421622026518	0.3827990697898265	0.9236223294127724	0.20122538136214502	0.392814117732068	1.3842410573472668	0.1538863578451435	0.48576838093355174	1.826293829416282	0.17490698368571642	0.264910073456064	1.8071075880932224	0.22023637985705063	0.31731298671437824	1.8219932065451097	0.13949012446353645	0.5339105350817125	1.8857155069580145	-0.012700438737452522	0.35725415759320334	0.9185464673905241	-0.022623853116361604	0.3779367424125946	1.3780126749247443	-0.019194302425976497	0.42678444505153473	1.8047565101889773	0.00976003998636955	0.27737457996287807	1.8275032478842825	-0.05091526089901874	0.29712502765162657	1.8055542875726782	-0.009611801253207755	0.5294785337719775	1.8789099549219515	0.08960328356342617	0.3791573275475939	0.40825818372856865	0.07453229606479236	0.28158842761739655	0.14227070619339832	0.08879530679133586	0.20912041614970003	0.3022496938512197	0.260704581315377	0.3470354831810921	0.45100787448206103	0.3163115562478969	0.3964141081123442	0.7134784242962972	0.2981446500859732	0.2518136178635806	0.8861967073020397	0.21056736693213324	0.12833769212396443	0.8912630800563034	0.1952604560859585	0.11636627561115027	0.9488011581234796	0.2221523253161954	0.1798745089663029	0.979675664001561	-0.07315132535714548	0.41984953006757036	0.48960836359055754	-0.1326426906037555	0.3845591738250897	0.7163726055285328	-0.1111012693143882	0.28223602880073384	0.888655784681392	-0.0483100550171801	0.19309922821882688	0.93948898423738	-0.05750720081730245	0.16504524291279712	0.9622063500135516	-0.07140694427239107	0.17680495497382823	0.9927663516949119
